<svg height="356pt" viewBox="0 -8 356.04 356" width="356pt" xmlns="http://www.w3.org/2000/svg"><path d="m174.632812 220.058594h-25.433593c-6.605469-18.613282-24.34375-32-45.199219-32-26.472656 0-48 21.53125-48 48 0 26.472656 21.527344 48 48 48 20.855469 0 38.59375-13.382813 45.199219-32h12.167969l32 32h54.632812v-32h-41.367188zm-70.632812 32c-8.824219 0-16-7.175782-16-16 0-8.824219 7.175781-16 16-16s16 7.175781 16 16c0 8.824218-7.175781 16-16 16zm0 0"/><path d="m356.039062 30.5625-9.542968-30.5429688-89.734375 28.0390628h-.761719v.242187l-68.039062 21.261719 9.542968 30.546875 58.496094-18.289063v134.238282h-17.609375c-7.4375-36.46875-39.757813-64-78.390625-64h-48v-32h32v-32h-96v32h32v32c-44.113281 0-80 35.890625-80 80v128h320v-96c0-20.855469-13.382812-38.589844-32-45.199219v-147.039063zm-68.039062 277.496094h-256v-96c0-26.46875 21.527344-48 48-48h80c26.472656 0 48 21.53125 48 48v16h64c8.824219 0 16 7.175781 16 16zm0 0"/></svg>