<svg height="512pt" viewBox="0 0 512 512" width="512pt" xmlns="http://www.w3.org/2000/svg"><path d="m271.800781 176.558594c-5.113281-1.015625-10.394531-1.558594-15.800781-1.558594-44.664062 0-81 36.335938-81 81s36.335938 81 81 81 81-36.335938 81-81c0-5.40625-.542969-10.6875-1.558594-15.800781l-47.621094 47.621093c-8.5 8.5-19.800781 13.179688-31.820312 13.179688s-23.320312-4.679688-31.820312-13.179688-13.179688-19.800781-13.179688-31.820312 4.679688-23.320312 13.179688-31.820312zm0 0"/><path d="m489.089844 150.1875-32.273438 32.273438c-3.230468 3.230468-6.871094 5.910156-10.800781 7.988281 7.109375 20.558593 10.984375 42.609375 10.984375 65.550781 0 110.832031-90.167969 201-201 201s-201-90.167969-201-201 90.167969-201 201-201c22.949219 0 45.011719 3.878906 65.574219 10.992188 2.082031-3.933594 4.742187-7.589844 7.96875-10.8125l32.269531-32.269532c-32.269531-14.707031-68.097656-22.910156-105.8125-22.910156-141.160156 0-256 114.839844-256 256s114.839844 256 256 256 256-114.839844 256-256c0-37.714844-8.203125-73.542969-22.910156-105.8125zm0 0"/><path d="m319.710938 128.648438-2.734376-32.40625c-18.949218-7.261719-39.503906-11.242188-60.976562-11.242188-94.289062 0-171 76.710938-171 171s76.710938 171 171 171 171-76.710938 171-171c0-21.472656-3.980469-42.027344-11.242188-60.976562l-32.40625-2.734376-23.785156 23.78125c4.796875 12.398438 7.433594 25.859376 7.433594 39.929688 0 61.207031-49.792969 111-111 111s-111-49.792969-111-111 49.792969-111 111-111c14.070312 0 27.53125 2.636719 39.929688 7.433594zm0 0"/><path d="m346.410156 88.261719 4.367188 51.75-105.382813 105.382812c-5.859375 5.855469-5.859375 15.355469 0 21.210938 2.925781 2.929687 6.765625 4.394531 10.605469 4.394531s7.679688-1.464844 10.605469-4.394531l105.382812-105.382813 51.75 4.363282c.421875.035156.839844.054687 1.261719.054687 3.960938 0 7.78125-1.570313 10.605469-4.394531l63.636719-63.640625c4.128906-4.125 5.488281-10.273438 3.484374-15.757813-2.007812-5.484375-7.011718-9.304687-12.828124-9.792968l-46.070313-3.886719-3.882813-46.066407c-.492187-5.820312-4.3125-10.824218-9.792968-12.828124-5.484375-2.007813-11.632813-.644532-15.761719 3.480468l-63.636719 63.640625c-3.125 3.125-4.714844 7.464844-4.34375 11.867188zm0 0"/></svg>