<?xml version="1.0" encoding="iso-8859-1"?>
<!-- Generator: Adobe Illustrator 19.0.0, SVG Export Plug-In . SVG Version: 6.00 Build 0)  -->
<svg version="1.1" id="Capa_1" xmlns="http://www.w3.org/2000/svg" xmlns:xlink="http://www.w3.org/1999/xlink" x="0px" y="0px"
	 viewBox="0 0 512 512" style="enable-background:new 0 0 512 512;" xml:space="preserve">
<g>
	<g>
		<path d="M332,221.412v116.234l158.291,79.146c9.974,4.988,21.709-2.265,21.709-13.416V243.914L332,221.412z"/>
	</g>
</g>
<g>
	<g>
		<path d="M288.86,216.02c-9.353-0.883-16.86,5.965-16.86,14.883v67.471c0,5.728,3.179,10.869,8.291,13.418L302,322.646V217.662
			L288.86,216.02z"/>
	</g>
</g>
<g>
	<g>
		<path d="M242,298.382v-67.48c0-27.319,24.128-48.062,50.581-44.648L509.81,213.41C498.273,146.233,459.2,83.854,400.613,44.552
			C336.98,1.866,256.586-10.878,181.82,9.659C82.123,37.008,0,148.52,0,255.761v71.836c0,17.593,10.356,33.677,26.851,41.177
			l331.253,136.553c44.143,18.296,95.409-2.457,113.643-48.413c1.588-3.988,3.272-8.963,4.918-13.391L266.873,338.627
			C251.63,331.005,242,315.424,242,298.382z M121,331.918c-33.091,0-60-26.909-60-60s26.909-60,60-60s60,26.909,60,60
			S154.091,331.918,121,331.918z"/>
	</g>
</g>
<g>
	<g>
		<path d="M121,241.918c-16.538,0-30,13.462-30,30c0,16.538,13.462,30,30,30s30-13.462,30-30
			C151,255.38,137.538,241.918,121,241.918z"/>
	</g>
</g>
<g>
</g>
<g>
</g>
<g>
</g>
<g>
</g>
<g>
</g>
<g>
</g>
<g>
</g>
<g>
</g>
<g>
</g>
<g>
</g>
<g>
</g>
<g>
</g>
<g>
</g>
<g>
</g>
<g>
</g>
</svg>
