<svg id="Layer_1" enable-background="new 0 0 512 512" height="512" viewBox="0 0 512 512" width="512" xmlns="http://www.w3.org/2000/svg"><g><path d="m287.835 393.271c-9.526 0-18.987-1.36-28.121-4.044-1.229-.361-2.493-.544-3.757-.544-1.262 0-2.524.182-3.75.542-9.122 2.676-18.569 4.033-28.081 4.033-27.814 0-54.241-11.497-73.121-31.661v135.403c0 5.325 2.823 10.251 7.417 12.943s10.271 2.746 14.917.143l82.661-46.333 82.659 46.332c2.28 1.278 4.807 1.915 7.334 1.915 2.622 0 5.243-.687 7.583-2.058 4.595-2.692 7.417-7.618 7.417-12.943v-135.432c-18.88 20.189-45.326 31.702-73.158 31.704z"/><ellipse cx="256" cy="182.134" rx="78.575" ry="78.58"/><path d="m429.48 147.464c3.954-27.46-8.569-54.897-31.903-69.9-6.839-4.398-12.238-10.632-15.614-18.029-11.519-25.238-36.886-41.549-64.626-41.555-8.131-.002-16.043-2.327-22.882-6.724-23.334-15.003-53.492-15.009-76.832-.016-6.838 4.393-14.748 6.714-22.875 6.714-.007 0-.015 0-.023 0-27.735 0-53.103 16.3-64.63 41.528-3.379 7.395-8.781 13.627-15.622 18.022-23.34 14.994-35.875 42.426-31.932 69.888 1.156 8.048-.02 16.211-3.399 23.607-11.529 25.233-7.244 55.087 10.918 76.058 5.323 6.146 8.747 13.649 9.903 21.697 3.942 27.461 23.687 50.259 50.302 58.08 7.801 2.292 14.738 6.753 20.06 12.899 18.162 20.97 47.096 29.473 73.716 21.663 7.801-2.289 16.049-2.288 23.849.005 6.573 1.931 13.284 2.868 19.943 2.868 20.305-.001 40.098-8.714 53.781-24.5 5.326-6.144 12.265-10.601 20.066-12.89 26.619-7.811 46.373-30.6 50.326-58.059 1.159-8.048 4.587-15.55 9.912-21.694 18.171-20.963 22.469-50.815 10.95-76.053-3.374-7.397-4.546-15.56-3.388-23.609zm-173.48 143.253c-59.869 0-108.575-48.71-108.575-108.582s48.706-108.583 108.575-108.583 108.575 48.71 108.575 108.582-48.706 108.583-108.575 108.583z"/></g></svg>