<svg id="Layer_1" enable-background="new 0 0 512 512" height="512" viewBox="0 0 512 512" width="512" xmlns="http://www.w3.org/2000/svg"><g><path d="m406.017 200.531c-39.086-39.632-91.24-61.909-146.854-62.729-56.189-.848-109.459 20.404-149.956 59.79-40.459 39.349-63.146 91.93-63.88 148.06-.395 30.135 5.443 59.311 17.352 86.715 11.489 26.438 28.011 49.892 49.11 69.707 0 .001.001.001.001.001 6.816 6.4 15.71 9.925 25.045 9.925h238.332c9.332 0 18.21-3.511 24.999-9.884 20.777-19.501 37.132-42.55 48.611-68.507 11.888-26.879 17.915-55.524 17.915-85.14-.001-55.726-21.548-108.265-60.675-147.938zm-103.294 178.464h-93.445c-8.284 0-15-6.716-15-15s6.716-15 15-15h93.445c8.284 0 15 6.716 15 15s-6.716 15-15 15zm30-55.879h-153.446c-8.284 0-15-6.716-15-15s6.716-15 15-15h153.445c8.284 0 15 6.716 15 15s-6.715 15-14.999 15z"/><path d="m91.41 173.12c21.06-19.8 45.02-35.39 70.84-46.36l-4.88-24.7c-1.57-7.97 1.9-13.67 4.12-16.36 2.21-2.7 7.13-7.21 15.25-7.21h158.52c8.12 0 13.04 4.51 15.25 7.21 2.22 2.69 5.69 8.39 4.12 16.36l-4.86 24.61c25.91 10.95 49.88 26.51 70.87 46.22l10.99-55.62c5.71-28.94-1.75-58.61-20.48-81.41-18.73-22.79-46.39-35.86-75.89-35.86h-158.52c-29.5 0-57.16 13.07-75.89 35.86-18.73 22.8-26.19 52.47-20.48 81.41z"/></g></svg>